# xmcd
#
# Track frame offsets:
# 150
# 3939
# 28410
# 49928
# 69121
# 85546
# 114064
# 138687
# 158531
# 185640
#
# Disc length: 2773 seconds
#
#
# Revision: 5
# Processed by: cddbd v1.5.1PL2 Copyright (c) Steve Scherf et al.
# Submitted via: FreeRIP 2.931 
#
DISCID=750ad30a
DTITLE=Shadows Fall - Of One Blood
DYEAR=2000
DGENRE=Heavy Metal
TTITLE0=Pain Glass Vision
TTITLE1=Crushing Belial
TTITLE2=Of One Blood
TTITLE3=The First Noble Truth
TTITLE4=Fleshold
TTITLE5=Root Bound Apollo
TTITLE6=Revel In My Loss
TTITLE7=Montauk
TTITLE8=To Ashes
TTITLE9=Serenity
EXTD=YEAR: 2000
EXTT0=
EXTT1=
EXTT2=
EXTT3=
EXTT4=
EXTT5=
EXTT6=
EXTT7=
EXTT8=
EXTT9=
PLAYORDER=
